<svg width="175" height="56" viewBox="0 0 175 56" fill="none" xmlns="http://www.w3.org/2000/svg">
<g id="Business Insider Logo" clip-path="url(#clip0_1_799)">
<g id="Group">
<path id="Vector" fill-rule="evenodd" clip-rule="evenodd" d="M13.6967 55.0485H17.7624V33.3286H13.6967V55.0485ZM28.6003 54.7227H32.2418V41.0188L47.5696 55.0485V33.6544H43.9383V47.1241L28.6003 33.3286V54.7227ZM55.8825 49.4624C57.8644 51.0066 60.2435 51.8991 62.7938 51.8991C65.2781 51.8991 67.0207 51.0439 67.0207 49.1553C67.0207 47.5093 65.9093 46.8645 63.963 46.1434L60.8119 45.0489C57.9069 44.0172 55.6975 42.5104 55.6975 39.0471C55.6975 35.3428 59.0421 33.3286 63.0416 33.3286C65.4919 33.3286 67.7249 33.9446 69.4693 35.0357V38.7094C67.6554 37.3689 65.67 36.4458 63.1196 36.4458C60.9239 36.4458 59.283 37.2653 59.283 38.9741C59.283 40.5182 60.313 41.1359 62.127 41.7569L65.6378 42.9889C69.04 44.1852 70.6011 46.0398 70.6011 49.0908C70.6011 52.9291 67.2244 55.0485 62.7938 55.0485C59.882 55.0485 57.4063 54.234 55.8825 53.2057V49.4624ZM80.0866 55.0485H84.1506V33.3286H80.0866V55.0485ZM103.217 51.7617C107.798 51.7617 110.247 48.8227 110.247 44.1835C110.247 39.5103 107.796 36.5815 103.217 36.5815H98.686V51.7617H103.217V51.7617ZM94.9868 33.3286H103.352C109.792 33.3286 113.956 37.5708 113.956 44.1835C113.956 50.8012 109.792 55.0485 103.352 55.0485H94.9868V33.3286ZM134.281 33.3286V36.5815H124.444V41.8079H133.266V45.0234H124.443V51.7617H134.281V55.0485H120.732V33.3286H134.281ZM148.708 43.1637H152.741C155.129 43.1637 156.474 41.8537 156.474 39.8395C156.474 37.8253 155.129 36.5136 152.741 36.5136H148.708V43.1653V43.1637ZM148.708 46.235V55.0485H145.119V33.3286H152.809C157.194 33.3286 160.031 35.5871 160.031 39.8395C160.031 43.4759 158.456 45.5647 155.102 46.1009L162.732 55.0485H158.65L151.262 46.2367H148.71L148.708 46.235ZM12.2764 11.9311C13.8664 11.3491 15.1051 9.60303 15.1051 7.20196C15.1051 3.20075 12.2764 1.12718 7.75089 1.12718H0.148926V23.463H8.45678C12.9823 23.463 15.811 21.2435 15.811 17.0608C15.811 14.6953 14.3262 12.6218 12.2764 11.9311ZM3.71913 10.5125V4.40213H7.71695C10.2283 4.40213 11.5705 5.31165 11.5705 7.42086C11.5705 9.53006 10.2266 10.5125 7.71695 10.5125H3.71913ZM3.71913 13.6416H8.38552C10.8629 13.6416 12.2052 14.8769 12.2052 16.9148C12.2052 18.9154 10.8612 20.1898 8.38721 20.1898H3.72083V13.6399L3.71913 13.6416ZM32.3979 23.8262C37.5954 23.8262 41.096 20.6971 41.096 14.5867V1.12718H37.4189V14.1489C37.4189 18.442 35.6508 20.4443 32.3979 20.4443C29.145 20.4443 27.3785 18.442 27.3785 14.1489V1.12718H23.7014V14.5494C23.7014 20.6971 27.236 23.8262 32.3979 23.8262V23.8262ZM49.7534 21.8612C51.2738 22.954 53.7495 23.8262 56.6478 23.8262C61.0681 23.8262 64.4262 21.5693 64.4262 17.4969C64.4262 14.2592 62.8719 12.2943 59.4765 11.0216L55.9775 9.71163C54.1738 9.05833 53.1489 8.40334 53.1489 6.76587C53.1489 4.94683 54.7745 4.07464 56.9668 4.07464C59.5121 4.07464 61.4923 5.05543 63.2961 6.4757V2.5814C61.5636 1.41904 59.3356 0.764051 56.8955 0.764051C52.9011 0.764051 49.5769 2.91059 49.5769 6.83883C49.5769 10.5125 51.7693 12.1127 54.6676 13.2038L57.8152 14.3678C59.7598 15.1314 60.856 15.8237 60.856 17.5698C60.856 19.5704 59.1235 20.4799 56.6478 20.4799C54.1025 20.4799 51.7337 19.5331 49.7534 17.8973V21.8612V21.8612ZM77.5651 1.12718H73.8897V23.4613H77.5651V1.12718ZM88.0551 23.4342H91.5982V8.90392L106.51 23.7803V1.09324H102.977V15.3758L88.0551 0.748779V23.4342V23.4342ZM129.487 1.13227V4.47679H119.941V9.85247H128.502V13.1597H119.941V20.088H129.487V23.4681H116.337V1.13227H129.487ZM138.048 21.8459C139.569 22.9387 142.043 23.8109 144.943 23.8109C149.361 23.8109 152.721 21.5558 152.721 17.4816C152.721 14.244 151.165 12.2807 147.771 11.0063L144.271 9.69805C142.467 9.04306 141.442 8.38807 141.442 6.7506C141.442 4.93155 143.068 4.05937 145.26 4.05937C147.805 4.05937 149.785 5.04185 151.589 6.46043V2.56782C149.857 1.40377 147.629 0.748779 145.189 0.748779C141.194 0.748779 137.87 2.89532 137.87 6.82356C137.87 10.4973 140.062 12.0974 142.961 13.1885L146.108 14.3526C148.053 15.1161 149.149 15.8085 149.149 17.5545C149.149 19.5552 147.418 20.4647 144.941 20.4647C142.396 20.4647 140.027 19.5195 138.048 17.882V21.8459V21.8459ZM160.253 21.8459C161.774 22.9387 164.249 23.8109 167.148 23.8109C171.568 23.8109 174.926 21.5558 174.926 17.4816C174.926 14.244 173.37 12.2807 169.976 11.0063L166.476 9.69805C164.674 9.04306 163.647 8.38807 163.647 6.7506C163.647 4.93155 165.274 4.05937 167.465 4.05937C170.01 4.05937 171.992 5.04185 173.794 6.46043V2.56782C172.064 1.40377 169.836 0.748779 167.395 0.748779C163.399 0.748779 160.077 2.89532 160.077 6.82356C160.077 10.4973 162.269 12.0974 165.167 13.1885L168.315 14.3526C170.26 15.1161 171.356 15.8085 171.356 17.5545C171.356 19.5552 169.623 20.4647 167.148 20.4647C164.602 20.4647 162.234 19.5195 160.253 17.882V21.8459V21.8459Z" fill="white" fill-opacity="0.5"/>
</g>
</g>
<defs>
<clipPath id="clip0_1_799">
<rect width="174.777" height="54.2997" fill="white" transform="translate(0.148926 0.748779)"/>
</clipPath>
</defs>
</svg>
