<svg width="261" height="59" viewBox="0 0 261 59" fill="none" xmlns="http://www.w3.org/2000/svg">
<path d="M28.8458 54.8998C43.1296 54.8998 54.7026 43.3653 54.7026 29.1334C54.7026 14.9068 43.1296 3.37231 28.8458 3.37231C14.5656 3.37231 2.98914 14.9068 2.98914 29.1334C2.98914 43.3653 14.5656 54.8998 28.8458 54.8998Z" fill="#263238"/>
<path d="M24.8715 33.429H34.3875L37.1673 35.2243H24.4516L18.7448 52.8015C12.4392 50.3672 6.60313 44.7217 4.15637 38.3772C1.5466 32.2304 1.54657 24.5071 4.21303 18.3356C6.71295 11.9876 12.7174 6.25742 19.108 3.9025C24.1362 1.82826 30.8653 1.60937 36.1982 3.24051C42.3178 4.9864 48.0954 9.35725 51.4564 15.0627C55.2125 21.319 56.2666 29.2682 53.9847 36.4106C52.5425 41.1487 49.5677 45.6856 45.4785 48.932L38.4536 37.2703L48.2318 42.7022C48.2866 42.7022 48.3152 42.6421 48.2867 42.5857L35.4788 31.5683L52.0428 34.0874C52.0994 34.0874 52.1224 34.061 52.1224 34.0328L52.0161 33.9498L36.3965 28.4932L52.6273 24.5866C52.6823 24.5866 52.6823 24.5354 52.654 24.5072L36.005 25.5876L49.0414 15.7531C49.0698 15.7001 48.9564 15.6737 48.928 15.7283L34.2846 23.1268L42.3691 8.91604C42.3691 8.89316 42.3691 8.83309 42.3178 8.86303L31.7546 21.2131L33.7815 4.98642C33.7815 4.95634 33.7249 4.92993 33.6699 4.95634L28.8117 20.7135L24.5578 4.48502C24.5294 4.45847 24.4711 4.42853 24.4444 4.48502L25.6155 21.319L15.584 8.31042C15.5502 8.28034 15.5256 8.31048 15.4972 8.33689L23.0856 22.7329L8.7416 14.9233C8.71495 14.9233 8.6601 14.9533 8.6601 14.9779L21.4148 25.4161L5.13259 23.7038C5.0742 23.7338 5.0742 23.7831 5.13259 23.8097L20.9187 28.4118L5.21586 33.0087C5.18567 33.0317 5.18567 33.0899 5.21586 33.1146L21.4148 31.2346L8.68666 42.0065C8.66001 42.0065 8.63181 42.0612 8.68666 42.093L8.85674 42.0364L19.0513 36.7176L21.4449 32.9257H24.1646L22.2776 31.5964L28.585 21.5147L24.8644 33.4235L24.8715 33.4292" fill="white" fill-opacity="0.5"/>
<path d="M71.8385 46.7013H59.1316L69.3067 10.5107H95.3548L92.8725 19.0989H79.5792L77.8748 25.2599H91.1681L88.9269 33.1649H75.6353L71.8385 46.7013V46.7013Z" fill="white" fill-opacity="0.5"/>
<path d="M101.244 46.7013H88.6842L96.1326 20.2623H108.692L101.244 46.7013ZM109.375 17.7396H96.8147L98.8593 10.5107H111.419L109.375 17.7396Z" fill="white" fill-opacity="0.5"/>
<path d="M133.831 46.7013H121.514L122.389 43.7426C119.905 45.8275 117.375 47.3314 113.334 47.3314C109.243 47.3314 106.665 45.3896 106.665 41.2659C106.665 36.7078 108.467 29.9149 111.144 25.161C113.091 21.6198 116.595 19.7768 120.734 19.7768C124.286 19.7768 126.916 21.3303 127.94 23.2686L131.446 10.5107H144.006L133.831 46.7013V46.7013ZM124.386 28.1197C123.264 28.1197 122.146 28.4621 121.514 30.012C120.587 32.2434 119.76 34.4271 119.76 36.609C119.76 37.6294 120.491 38.5014 121.707 38.5014C122.681 38.5014 123.314 38.2102 123.849 37.873L126.382 29.1877C125.943 28.5557 125.163 28.1197 124.386 28.1197Z" fill="white" fill-opacity="0.5"/>
<path d="M169.298 35.1547H151.967C151.623 36.5599 151.285 37.5325 151.285 38.6464C151.285 39.1813 151.382 40.5389 153.134 40.5389C154.887 40.5389 155.666 39.8592 156.396 37.2889H168.713C167.156 44.8091 158.198 47.3776 152.697 47.3776C145.247 47.3776 139.453 46.3114 139.453 39.1813C139.453 35.2517 141.448 28.7501 144.079 25.3078C147.243 21.184 152.745 19.634 157.81 19.634C165.599 19.634 170.66 21.2335 170.66 27.8287C170.66 29.4316 169.98 32.971 169.298 35.1547V35.1547ZM156.736 26.2787C155.179 26.2787 154.109 27.3449 153.427 30.0123H158.586C158.733 29.4792 158.928 28.6548 158.928 28.1693C158.928 26.7147 158.051 26.2787 156.736 26.2787Z" fill="white" fill-opacity="0.5"/>
<path d="M181.922 46.7013H169.36L179.536 10.5107H192.097L181.922 46.7013Z" fill="white" fill-opacity="0.5"/>
<path d="M198.518 46.7013H185.955L193.405 20.2623H205.966L198.518 46.7013V46.7013ZM206.647 17.7396H194.087L196.132 10.5107H208.693L206.647 17.7396Z" fill="white" fill-opacity="0.5"/>
<path d="M229.23 20.262L230.323 26.2287H220.71L217.885 36.2715C217.643 37.0465 217.446 38.0157 217.446 38.6476C217.446 39.811 217.935 40.2012 219.638 40.2012H222.317L220.465 46.701H209.268C205.567 46.701 204.155 44.9057 204.155 42.1871C204.155 41.075 204.302 39.8586 204.691 38.5011L211.507 14.3923H224.069L222.412 20.262H229.23" fill="white" fill-opacity="0.5"/>
<path d="M58.8745 50.7659L62.0052 50.7617L60.0102 57.2704L56.8884 57.2718L58.8745 50.7649V50.7659Z" fill="white" fill-opacity="0.5"/>
<path d="M69.8025 50.7718L74.3824 50.769L75.5571 55.1099H75.589L76.9142 50.7672L79.632 50.7644L77.6229 57.259L73.2414 57.2749L71.9711 52.6375H71.9498L70.5608 57.2661L67.8412 57.2675L69.8025 50.7729V50.7718Z" fill="white" fill-opacity="0.5"/>
<path d="M85.5685 50.7746L89.0163 50.7731L89.6186 54.8634L92.7723 50.7696L95.9632 50.7654L90.703 57.2618L86.876 57.2645L85.5685 50.7735V50.7746Z" fill="white" fill-opacity="0.5"/>
<path d="M101.966 50.7766L109.088 50.771L108.686 52.0861L104.592 52.0903L104.195 53.4249L108.034 53.4235L107.65 54.6769L103.812 54.6783L103.415 55.9669L107.552 55.9627L107.136 57.2796L99.9746 57.2853L101.966 50.7766V50.7766Z" fill="white" fill-opacity="0.5"/>
<path d="M132.556 52.361L130.117 52.3623L130.6 50.7842L138.605 50.7771L138.123 52.3554L135.685 52.3581L134.19 57.2551L131.063 57.2593L132.556 52.3606V52.361Z" fill="white" fill-opacity="0.5"/>
<path d="M145.083 50.7681L149.826 50.7652L150.056 55.1079H150.076L152.903 50.7635L157.669 50.7578L155.69 57.2665L152.788 57.2694L154.276 52.3671H154.253L150.729 57.2711L147.705 57.2753L147.278 52.3731H147.246L145.76 57.2612L143.104 57.2626L145.083 50.7681V50.7681Z" fill="white" fill-opacity="0.5"/>
<path d="M177.6 50.7719L182.177 50.7691L183.355 55.11H183.385L184.71 50.7655L187.427 50.7642L185.439 57.2746L181 57.2619L179.767 52.6368H179.748L178.325 57.2636L175.607 57.2665L177.6 50.7719V50.7719Z" fill="white" fill-opacity="0.5"/>
<path d="M194.934 52.3515L192.492 52.3529L192.976 50.7729L200.983 50.7673L200.501 52.3455L198.061 52.3483L196.567 57.2611L193.437 57.2654L194.934 52.3508V52.3515Z" fill="white" fill-opacity="0.5"/>
<path d="M118.685 52.743C118.616 52.6707 118.612 52.547 118.641 52.4464C118.743 52.1163 119.158 51.8991 119.819 51.8991C120.209 51.8977 120.807 51.9415 120.979 52.0775C121.162 52.2098 121.22 52.4093 121.156 52.6052H123.929C124.255 51.4437 123.522 50.6953 120.391 50.697C117.416 50.7013 115.73 51.336 115.296 52.7536C115.184 53.1243 115.17 53.5797 115.476 53.8869C116.243 54.646 119.702 54.9479 119.994 55.3574C120.053 55.4405 120.076 55.5392 120.04 55.6557C119.881 56.1783 119.138 56.3124 118.49 56.3124C118.077 56.3124 117.542 56.2241 117.388 56.0547C117.243 55.8834 117.243 55.6222 117.326 55.4545L114.424 55.4602C114.131 56.4682 114.007 57.5167 118.043 57.5149C121.427 57.5107 122.978 56.6853 123.368 55.4019C123.561 54.7734 123.369 54.4257 123.15 54.2015C122.398 53.4301 119.048 53.1458 118.685 52.7433" fill="white" fill-opacity="0.5"/>
<path d="M164.042 50.7784L171.164 50.7727L170.764 52.0879L166.668 52.0906L166.271 53.4252L170.11 53.4238L169.726 54.6772L165.888 54.6786L165.491 55.9691L169.628 55.9662L169.212 57.2814L162.05 57.2885L164.042 50.778V50.7784Z" fill="white" fill-opacity="0.5"/>
<path d="M246.186 20.2619L239.371 34.9122L239.566 20.2619H226.859L229.293 46.7009C228.981 48.2491 228.467 49.1211 227.493 49.5519C226.426 50.025 224.015 49.942 223.166 49.8943L223.012 49.9029L221.01 57.0859L229.583 57.0943C234.647 57.0943 237.131 54.5576 240.733 48.9315L259.04 20.2612H246.186" fill="#231F20"/>
<path d="M209.105 52.7277C209.036 52.6536 209.034 52.53 209.06 52.4311C209.165 52.0992 209.578 51.8821 210.239 51.8821C210.628 51.8821 211.227 51.9262 211.399 52.0622C211.583 52.1928 211.642 52.394 211.576 52.59H214.349C214.677 51.4284 213.941 50.6781 210.811 50.6817C207.836 50.6845 206.149 51.3208 205.717 52.7383C205.604 53.1073 205.589 53.5644 205.896 53.8698C206.663 54.6307 210.122 54.9326 210.414 55.3421C210.474 55.4233 210.495 55.524 210.46 55.6405C210.302 56.163 209.558 56.2954 208.911 56.2971C208.497 56.2971 207.962 56.2089 207.808 56.0377C207.664 55.8664 207.664 55.6069 207.746 55.4392L204.844 55.442C204.551 56.4518 204.427 57.5004 208.463 57.4986C211.847 57.493 213.398 56.6689 213.789 55.3838C213.981 54.7553 213.791 54.4076 213.569 54.1851C212.818 53.4137 209.468 53.1295 209.105 52.727" fill="white" fill-opacity="0.5"/>
<path d="M248.167 46.215C246.909 46.215 245.892 45.1999 245.892 43.9483C245.892 42.6967 246.909 41.6816 248.167 41.6816C249.423 41.6816 250.441 42.6967 250.441 43.9483C250.441 45.1999 249.423 46.215 248.167 46.215ZM248.167 41.1926C246.641 41.1926 245.401 42.4302 245.401 43.9483C245.401 45.4665 246.641 46.7039 248.167 46.7039C249.688 46.7039 250.93 45.4665 250.93 43.9483C250.93 42.4302 249.688 41.1926 248.167 41.1926Z" fill="#231F20"/>
<path d="M247.692 43.7579V42.9619H248.071C248.395 42.9549 248.749 42.9761 248.749 43.3573C248.749 43.7385 248.395 43.7579 248.071 43.7579H247.692ZM249.273 43.3785C249.273 42.8296 248.953 42.5208 248.265 42.5208H247.192V45.362H247.692V44.1991H248.071L248.784 45.362H249.333L248.588 44.1585C248.979 44.1109 249.273 43.8708 249.273 43.3785" fill="#231F20"/>
<path d="M246.167 20.3263L239.372 34.9271L239.567 20.3263H226.905L229.33 46.6735C229.02 48.2164 228.508 49.0848 227.537 49.5156C226.474 49.9851 224.072 49.9022 223.225 49.8546L223.072 49.863L221.076 57.0231L229.619 57.0302C234.667 57.0302 237.142 54.504 240.731 48.8974L258.975 20.3259H246.167V20.3263Z" fill="white" fill-opacity="0.5"/>
</svg>
