<svg width="176" height="48" viewBox="0 0 176 48" fill="none" xmlns="http://www.w3.org/2000/svg">
<g id="Forbes.com Logo">
<path id="Vector" d="M99.5205 16.6484C99.5205 11.5799 99.6079 6.86089 99.87 2.49146L86.4996 5.02573V6.24917L87.8104 6.42394C88.7717 6.51133 89.3834 6.86089 89.733 7.38522C90.0825 7.99694 90.3447 8.87082 90.5195 10.1817C90.6942 12.7159 90.869 18.4836 90.7816 27.572C90.7816 36.573 90.6942 42.2533 90.5195 44.438C95.3258 45.4867 99.0835 45.9236 101.88 45.9236C107.123 45.9236 111.231 44.438 114.202 41.3794C117.173 38.4082 118.746 34.2135 118.746 29.0576C118.746 24.9503 117.61 21.5422 115.338 18.8331C113.066 16.1241 110.182 14.8133 106.774 14.8133C104.502 14.8133 102.142 15.425 99.5205 16.6484V16.6484ZM99.7826 43.5641C99.6079 40.7677 99.4331 32.3784 99.4331 18.6583C100.22 18.3962 101.268 18.2214 102.579 18.2214C104.676 18.2214 106.337 19.2701 107.56 21.4548C108.784 23.6395 109.395 26.2612 109.395 29.5819C109.395 33.6892 108.696 37.01 107.298 39.8064C105.9 42.5154 104.152 43.9137 101.967 43.9137C101.268 43.7389 100.569 43.6515 99.7826 43.5641V43.5641ZM36.3385 3.36534H1.38306V5.11311L3.21822 5.28789C4.61644 5.55006 5.57771 6.07439 6.18943 6.86089C6.80115 7.73477 7.15071 9.13299 7.23809 11.0555C7.9372 20.4935 7.9372 29.3198 7.23809 37.4469C7.06332 39.3695 6.71376 40.7677 6.18943 41.6416C5.57771 42.5154 4.61644 43.0398 3.21822 43.2145L1.38306 43.4767V45.2245H23.9293V43.4767L21.5698 43.3019C20.1716 43.1272 19.2103 42.5154 18.5986 41.7289C17.9869 40.8551 17.6373 39.4568 17.55 37.5343C17.2878 34.0387 17.113 30.0189 17.113 25.562L21.832 25.6494C24.3663 25.7368 26.114 27.6594 26.9879 31.5045H28.7357V17.2601H26.9879C26.114 21.0178 24.4537 22.9404 21.832 23.0278L17.113 23.1152C17.113 15.2502 17.2878 9.65732 17.55 6.24917H24.4537C29.3474 6.24917 32.6682 9.39516 34.5907 15.6871L36.6881 15.0754L36.3385 3.36534ZM32.2312 30.281C32.2312 34.8252 33.5421 38.583 36.0763 41.5542C38.6106 44.5254 42.3683 45.9236 47.0873 45.9236C51.8063 45.9236 55.6514 44.438 58.4478 41.3794C61.2443 38.4082 62.5551 34.6505 62.5551 30.1063C62.5551 25.562 61.2443 21.8043 58.71 18.8331C56.1757 15.8619 52.418 14.4637 47.699 14.4637C42.98 14.4637 39.1349 15.9493 36.3385 19.0079C33.5421 21.9791 32.2312 25.7368 32.2312 30.281V30.281ZM51.7189 20.3187C52.7676 22.853 53.2045 26.1738 53.2045 30.1936C53.2045 39.4568 51.282 44.001 47.5242 44.001C45.6017 44.001 44.1161 42.6902 43.0674 40.0686C42.0188 37.4469 41.5818 34.1261 41.5818 30.1936C41.5818 21.0178 43.5044 16.4736 47.2621 16.4736C49.1846 16.3862 50.6702 17.6971 51.7189 20.3187V20.3187ZM125.562 41.5542C128.446 44.438 132.116 45.9236 136.486 45.9236C139.195 45.9236 141.554 45.3993 143.652 44.2632C145.749 43.2145 147.409 41.9037 148.545 40.3307L147.672 39.2821C145.749 40.7677 143.564 41.4668 141.03 41.4668C137.535 41.4668 134.825 40.3307 132.99 37.9712C131.068 35.6117 130.194 32.6405 130.369 28.7954H149.07C149.07 24.6008 148.021 21.1926 145.836 18.4836C143.652 15.8619 140.593 14.5511 136.661 14.5511C131.767 14.5511 128.009 16.1241 125.3 19.1827C122.591 22.2413 121.28 25.999 121.28 30.4558C121.28 35 122.678 38.6703 125.562 41.5542V41.5542ZM132.029 19.6196C132.99 17.5223 134.214 16.4736 135.874 16.4736C138.496 16.4736 139.807 19.7944 139.807 26.5233L130.543 26.6981C130.631 24.0764 131.068 21.717 132.029 19.6196ZM172.577 16.1241C170.218 15.0754 167.247 14.4637 163.664 14.4637C159.993 14.4637 157.11 15.425 154.925 17.2601C152.74 19.0953 151.604 21.3674 151.604 24.0764C151.604 26.4359 152.303 28.2711 153.614 29.5819C154.925 30.8928 157.022 32.0288 159.731 32.9901C162.178 33.864 163.926 34.7379 164.8 35.5244C165.674 36.3982 166.198 37.3595 166.198 38.6703C166.198 39.8938 165.761 41.0298 164.8 41.9037C163.926 42.865 162.702 43.3019 161.129 43.3019C157.284 43.3019 154.401 40.5055 152.391 34.9126L150.905 35.3496L151.255 44.0884C154.401 45.3119 157.896 45.9236 161.741 45.9236C165.761 45.9236 168.82 45.0497 171.092 43.2145C173.364 41.4668 174.5 38.9325 174.5 35.7865C174.5 33.6892 173.976 31.9414 172.84 30.6306C171.703 29.3198 169.868 28.1837 167.247 27.135C164.363 26.0864 162.353 25.1251 161.304 24.2512C160.256 23.3773 159.731 22.3287 159.731 21.0178C159.731 19.707 160.081 18.6583 160.867 17.7845C161.654 16.9106 162.615 16.561 163.839 16.561C167.334 16.561 169.868 19.0953 171.441 24.0764L172.927 23.6395L172.577 16.1241ZM88.5095 15.3376C87.2861 14.7259 85.9752 14.4637 84.4896 14.4637C83.004 14.4637 81.5184 15.0754 79.858 16.2989C78.1977 17.5223 76.9742 19.1827 76.0129 21.4548L76.1003 14.4637L62.8173 17.0854V18.3088L64.1281 18.3962C65.7885 18.571 66.7497 19.8818 66.9245 22.2413C67.4489 27.6594 67.4489 33.427 66.9245 39.5442C66.7497 41.9037 65.7885 43.1272 64.1281 43.3893L62.8173 43.5641V45.2245H81.3436V43.5641L78.9842 43.3893C77.3238 43.2145 76.3625 41.9037 76.1877 39.5442C75.6634 34.4757 75.576 29.0576 76.0129 23.4647C76.5373 22.5908 77.6733 22.0665 79.4211 21.8917C81.1689 21.717 83.1788 22.2413 85.2761 23.4647L88.5095 15.3376V15.3376Z" fill="white" fill-opacity="0.5"/>
</g>
</svg>
