<svg width="203" height="30" viewBox="0 0 203 30" fill="none" xmlns="http://www.w3.org/2000/svg">
<g id="MarketWatch Logo" clip-path="url(#clip0_1_802)">
<g id="Group">
<g id="Group_2">
<path id="Vector" d="M49.7549 12.8434L49.4078 14.5529H49.321C48.8872 13.5967 47.6724 12.2639 44.9825 12.2639C40.6439 12.2639 36.2186 15.6249 35.2352 20.9273C34.3964 25.5632 36.6235 29.6486 41.7719 29.6486C43.652 29.6486 45.8212 28.9242 46.9493 27.3306H47.036L46.7179 29.0691H51.5192L54.5273 12.8434H49.7549V12.8434ZM48.193 20.9273C47.8748 22.5209 46.3708 25.0996 43.3627 25.0996C40.4125 25.0996 39.8051 22.4919 40.0654 20.9852C40.4125 19.1309 42.0612 16.8129 44.8668 16.8129C47.6145 16.8419 48.5401 19.015 48.193 20.9273Z" fill="white" fill-opacity="0.5"/>
<path id="Vector_2" d="M57.2476 12.8434H61.7596L61.4415 14.5529H61.5283C62.1067 13.7706 63.2348 12.2639 66.0114 12.2639L65.1148 17.1896C62.8298 17.2185 61.1812 17.6821 60.7473 20.1739L59.0987 29.0691H54.2395L57.2476 12.8434Z" fill="white" fill-opacity="0.5"/>
<path id="Vector_3" d="M69.2794 6.49805H74.1386L71.8536 18.7253H71.9404L77.5516 12.8434H83.2496L75.8451 19.9712L80.0969 29.0691H74.6014L71.4776 21.246H71.3908L69.9736 29.0691H65.0854L69.2794 6.49805Z" fill="white" fill-opacity="0.5"/>
<path id="Vector_4" d="M91.0296 12.2639C86.1126 12.2639 81.7451 16.4942 80.9353 21.0142C80.0386 25.824 83.2781 29.6196 87.9348 29.6196C89.5835 29.6196 91.29 29.127 92.794 28.1419C94.327 27.2147 95.7442 25.824 96.8433 23.9986H91.8974C91.0875 24.8388 90.1619 25.5052 88.6579 25.5052C86.7779 25.5052 85.3606 24.3752 85.4474 22.4339H97.5953C97.7399 22.0573 97.8267 21.7675 97.9424 21.1591C98.868 16.2044 95.9756 12.2639 91.0296 12.2639ZM86.1126 19.1598C86.4886 18.2037 87.8191 16.3783 90.3355 16.3783C92.8518 16.3783 93.4592 18.2037 93.4592 19.1598H86.1126Z" fill="white" fill-opacity="0.5"/>
<path id="Vector_5" d="M28.8151 6.49805L20.2537 19.3627H20.1958V6.49805H16.0598L0.903732 29.0691H6.77524L15.2788 16.2045H15.3656V29.0691H19.5306L28.0342 16.2045H28.1209V29.0691H32.9801V6.49805H28.8151Z" fill="white" fill-opacity="0.5"/>
<path id="Vector_6" d="M110.235 12.8434H107.169L108.066 8.03369H103.814L103.467 9.88805C103.091 12.0032 101.761 12.6406 99.9964 12.8434H99.9674L99.2444 16.5232H101.645L99.3311 29.0691H104.161L106.475 16.5232H109.57L110.235 12.8434Z" fill="white" fill-opacity="0.5"/>
</g>
<g id="Group_3">
<g id="Group_4">
<path id="Vector_7" d="M185.206 22.9266C183.615 26.6063 179.826 29.6197 175.459 29.6197C170.542 29.6197 167.505 25.7371 168.372 20.8984C169.269 16.1466 173.665 12.264 178.525 12.264C182.805 12.264 185.756 15.1325 185.842 19.102H180.925C180.607 17.972 179.884 16.813 177.83 16.813C175.545 16.6971 173.665 18.5804 173.232 20.9274C172.798 23.3033 174.012 25.0707 176.326 25.0707C178.322 25.0707 179.537 23.9117 180.231 22.8976H185.206V22.9266ZM145.06 0.732178L135.631 6.49809H138.292L129.759 19.3627H129.672V6.49809H125.507L116.975 19.3627H116.888V6.49809H112.029V29.0692H116.252L124.784 16.2045H124.871V29.0692H129.036L144.134 6.49809H146.535L145.06 0.732178ZM154.258 29.0692H149.456L149.774 27.3307H149.688C148.56 28.9243 146.39 29.6487 144.51 29.6487C139.362 29.6487 137.135 25.5922 137.974 20.9274C138.928 15.625 143.382 12.264 147.721 12.264C150.382 12.264 151.626 13.5678 152.059 14.553H152.146L152.493 12.8435H157.295L154.258 29.0692ZM146.101 25.1286C149.109 25.1286 150.613 22.5209 150.931 20.9563C151.278 19.015 150.353 16.842 147.605 16.842C144.828 16.842 143.151 19.1599 142.804 21.0143C142.543 22.5209 143.151 25.1286 146.101 25.1286ZM169.385 12.8435H166.348L167.244 8.03373H162.993L162.645 9.8881C162.269 12.0032 160.939 12.6407 159.175 12.8435H159.117L158.423 16.5232H160.823L158.509 29.0692H163.34L165.654 16.5232H168.748L169.385 12.8435ZM189.776 6.49809H194.606L193.131 14.553H193.218C194.259 13.0463 195.647 12.264 197.788 12.264C199.321 12.264 201.085 12.8435 201.895 14.0894C202.936 15.683 202.82 17.1027 202.271 20.0002L200.622 29.0692H195.792L197.412 20.232C197.556 19.4497 198.019 16.813 195.445 16.813C192.726 16.813 192.263 19.2468 192.119 20.0581L190.47 29.0402H185.64L189.776 6.49809Z" fill="white" fill-opacity="0.5"/>
</g>
</g>
</g>
</g>
<defs>
<clipPath id="clip0_1_802">
<rect width="201.743" height="28.9165" fill="white" transform="translate(0.903732 0.732178)"/>
</clipPath>
</defs>
</svg>
