<svg width="49" height="49" viewBox="0 0 49 49" fill="none" xmlns="http://www.w3.org/2000/svg">
<g id="social">
<circle id="Ellipse 17" cx="24.4005" cy="24.438" r="23.9695" fill="white"/>
<path id="instagram" fill-rule="evenodd" clip-rule="evenodd" d="M16.9449 9.95649C13.0645 9.95649 9.91889 13.1021 9.91889 16.9825V32.0332C9.91889 35.9136 13.0645 39.0592 16.9449 39.0592H31.9956C35.876 39.0592 39.0216 35.9136 39.0216 32.0332V16.9825C39.0216 13.1021 35.876 9.95649 31.9956 9.95649H16.9449ZM8.92017 16.9825C8.92017 12.5506 12.513 8.95776 16.9449 8.95776H31.9956C36.4276 8.95776 40.0204 12.5506 40.0204 16.9825V32.0332C40.0204 36.4652 36.4276 40.058 31.9956 40.058H16.9449C12.513 40.058 8.92017 36.4652 8.92017 32.0332V16.9825ZM25.3455 18.9814C24.1968 18.811 23.0236 19.0072 21.9929 19.5421C20.9621 20.0769 20.1263 20.9231 19.6042 21.9604C19.0821 22.9977 18.9004 24.1732 19.0848 25.3197C19.2693 26.4662 19.8106 27.5253 20.6318 28.3464C21.4529 29.1676 22.512 29.7089 23.6585 29.8934C24.8051 30.0779 25.9805 29.8961 27.0178 29.374C28.0551 28.852 28.9013 28.0161 29.4362 26.9853C29.971 25.9546 30.1672 24.7814 29.9969 23.6327C29.8231 22.461 29.2771 21.3763 28.4395 20.5387C27.602 19.7011 26.5172 19.1551 25.3455 18.9814ZM21.5329 18.6556C22.7501 18.024 24.1355 17.7923 25.492 17.9934C26.8757 18.1986 28.1567 18.8434 29.1458 19.8325C30.1349 20.8216 30.7796 22.1026 30.9848 23.4862C31.1859 24.8427 30.9542 26.2281 30.3227 27.4453C29.6911 28.6625 28.6917 29.6496 27.4668 30.2661C26.2419 30.8827 24.8538 31.0973 23.4999 30.8794C22.146 30.6616 20.8952 30.0223 19.9256 29.0527C18.9559 28.083 18.3167 26.8322 18.0988 25.4783C17.8809 24.1244 18.0955 22.7363 18.7121 21.5114C19.3286 20.2865 20.3157 19.2872 21.5329 18.6556ZM32.7482 15.7306C32.4724 15.7306 32.2488 15.9542 32.2488 16.23C32.2488 16.5058 32.4724 16.7294 32.7482 16.7294H32.7655C33.0413 16.7294 33.2648 16.5058 33.2648 16.23C33.2648 15.9542 33.0413 15.7306 32.7655 15.7306H32.7482Z" fill="#23B123"/>
</g>
</svg>
