<svg width="49" height="49" viewBox="0 0 49 49" fill="none" xmlns="http://www.w3.org/2000/svg">
<g id="social" clip-path="url(#clip0_1_793)">
<circle id="Ellipse 17" cx="24.2375" cy="24.438" r="23.9695" fill="white"/>
<path id="Vector" d="M39.9953 10.4704C38.6138 11.4479 37.0842 12.1955 35.4655 12.6845C34.5967 11.6824 33.442 10.9721 32.1576 10.6497C30.8733 10.3273 29.5212 10.4084 28.2843 10.882C27.0474 11.3556 25.9853 12.1988 25.2417 13.2977C24.4981 14.3965 24.1089 15.6979 24.1266 17.0259V18.473C21.5914 18.539 19.0793 17.9749 16.814 16.8312C14.5488 15.6874 12.6006 13.9994 11.1431 11.9175C11.1431 11.9175 5.37272 24.9417 18.3562 30.7302C15.3852 32.7533 11.8459 33.7677 8.25793 33.6245C21.2414 40.8602 37.1101 33.6245 37.1101 16.9825C37.1087 16.5794 37.0701 16.1773 36.9946 15.7813C38.467 14.3248 39.506 12.4858 39.9953 10.4704V10.4704Z" stroke="#23B123" stroke-width="0.998727" stroke-linecap="round" stroke-linejoin="round"/>
</g>
<defs>
<clipPath id="clip0_1_793">
<rect width="47.9389" height="47.9389" fill="white" transform="translate(0.268066 0.468506)"/>
</clipPath>
</defs>
</svg>
