<svg width="57" height="57" viewBox="0 0 57 57" fill="none" xmlns="http://www.w3.org/2000/svg">
<g id="carbon:mobile-download">
<path id="Vector" d="M49.807 44.6386L47.3357 42.1672L42.8159 46.687V32.4042H39.3204V46.687L34.8006 42.1672L32.3293 44.6386L41.0681 53.3774L49.807 44.6386Z" fill="#23B123"/>
<path id="Vector_2" d="M18.3471 49.882V18.4221H39.3204V27.1609H42.8159V11.431C42.815 10.5042 42.4464 9.61561 41.7911 8.96027C41.1357 8.30493 40.2472 7.93635 39.3204 7.93542H18.3471C17.4203 7.93635 16.5317 8.30493 15.8764 8.96027C15.221 9.61561 14.8525 10.5042 14.8515 11.431V49.882C14.8525 50.8088 15.221 51.6973 15.8764 52.3527C16.5317 53.008 17.4203 53.3766 18.3471 53.3775H28.8337V49.882H18.3471ZM18.3471 11.431H39.3204V14.9265H18.3471V11.431Z" fill="#23B123"/>
</g>
</svg>
