<svg width="57" height="57" viewBox="0 0 57 57" fill="none" xmlns="http://www.w3.org/2000/svg">
<g id="carbon:currency-dollar">
<path id="Vector" d="M41.0683 36.1965C41.0683 28.1305 34.4617 27.2112 29.1537 26.4736C23.3686 25.6696 20.095 24.9705 20.095 19.9894C20.095 15.8087 24.4767 14.3231 28.2292 14.3231C30.0992 14.2627 31.9568 14.6476 33.6488 15.4462C35.3408 16.2448 36.8188 17.4342 37.9608 18.9162L40.6803 16.721C39.4573 15.1483 37.9355 13.8329 36.2025 12.8503C34.4694 11.8676 32.5592 11.2372 30.5817 10.9953V5.58423H27.0861V10.866C20.7679 11.2505 16.5995 14.816 16.5995 19.9894C16.5995 28.2563 23.2935 29.1879 28.6714 29.9342C34.3569 30.7259 37.5728 31.4058 37.5728 36.1965C37.5728 41.4957 32.097 42.2875 28.8339 42.2875C22.839 42.2875 20.3083 40.6026 17.9593 37.6943L15.2397 39.8895C16.6253 41.7154 18.4174 43.1931 20.4737 44.2055C22.5301 45.2179 24.7941 45.7371 27.0861 45.7218V51.0263H30.5817V45.7043C37.0939 45.173 41.0683 41.6373 41.0683 36.1965V36.1965Z" fill="#23B123"/>
</g>
</svg>
