<svg width="57" height="57" viewBox="0 0 57 57" fill="none" xmlns="http://www.w3.org/2000/svg">
<g id="fluent:inprivate-account-28-regular">
<g id="Group">
<path id="Vector" d="M42.8159 32.7025C45.4246 32.7025 47.6458 34.3704 48.4687 36.6974H28.8337V35.6987H14.8516C14.1071 35.6987 13.3892 35.9759 12.8379 36.4762C12.2866 36.9765 11.9413 37.6642 11.8694 38.4052L11.8554 38.6949V40.1231C11.8554 45.4643 18.6247 49.6809 28.8337 49.6809V48.6821H43.7567C40.1813 51.165 34.9479 52.6771 28.8337 52.6771C17.2685 52.6771 8.85919 47.5496 8.85919 40.1231V38.6949C8.85919 37.1056 9.49053 35.5814 10.6143 34.4576C11.7381 33.3339 13.2623 32.7025 14.8516 32.7025H42.8159ZM48.8083 38.6949V40.1231C48.8083 40.6564 48.7623 41.1797 48.6685 41.6911H28.8337V38.6949H48.8083ZM48.0672 43.6885H28.8337V46.6847H46.0798C46.9327 45.7639 47.6038 44.7591 48.0672 43.6885ZM40.7266 15.2248C40.8505 16.2197 40.8505 17.2261 40.7266 18.221H28.8337V15.2248H40.7266ZM40.3011 13.2273C39.9782 12.1689 39.5097 11.1605 38.9089 10.2312H28.8337V13.2273H40.2991H40.3011ZM28.8337 4.73816C32.1355 4.73816 35.1257 6.07446 37.293 8.2337H28.8337V7.73434C26.4498 7.73434 24.1636 8.68134 22.4779 10.367C20.7922 12.0527 19.8452 14.339 19.8452 16.7229C19.8452 19.1068 20.7922 21.3931 22.4779 23.0787C24.1636 24.7644 26.4498 25.7114 28.8337 25.7114V25.2121H37.293C35.8975 26.6027 34.1808 27.6278 32.2947 28.1968C30.4086 28.7658 28.4113 28.8611 26.4797 28.4742C24.548 28.0874 22.7415 27.2303 21.22 25.9788C19.6985 24.7274 18.509 23.1201 17.7567 21.2994C17.0044 19.4786 16.7126 17.5005 16.907 15.5401C17.1014 13.5797 17.7761 11.6974 18.8714 10.0599C19.9666 8.42235 21.4487 7.08008 23.1863 6.15185C24.924 5.22363 26.8637 4.73807 28.8337 4.73816V4.73816ZM38.9089 23.2146H28.8337V20.2184H40.2991C39.9755 21.2891 39.5041 22.2958 38.9089 23.2146Z" fill="#23B123"/>
</g>
</g>
</svg>
