<svg width="143" height="26" viewBox="0 0 143 26" fill="none" xmlns="http://www.w3.org/2000/svg">
<line x1="2.02848" y1="5.00917" x2="2.02848" y2="20.9888" stroke="white" stroke-width="3.99491" stroke-linecap="round"/>
<line x1="12.0157" y1="7.00673" x2="12.0157" y2="18.9915" stroke="white" stroke-width="3.99491" stroke-linecap="round"/>
<line x1="22.003" y1="9.00405" x2="22.003" y2="16.9939" stroke="white" stroke-width="3.99491" stroke-linecap="round"/>
<path d="M32.8052 19.499V1.37213H42.2752V3.33862H34.3213L35.0354 2.75636V10.4246L34.3213 9.43585H41.7808V11.3914H34.3213L35.0354 10.4026V19.499H32.8052ZM49.9944 19.8506C48.9471 19.8506 47.9986 19.5942 47.149 19.0816C46.3067 18.5616 45.6366 17.8511 45.1386 16.9503C44.6479 16.0494 44.4025 15.0204 44.4025 13.8632C44.4025 12.7207 44.6442 11.7026 45.1276 10.8091C45.611 9.90825 46.2738 9.19782 47.1161 8.67781C47.9583 8.15781 48.9178 7.89781 49.9944 7.89781C50.9465 7.89781 51.8144 8.11021 52.5981 8.535C53.3891 8.95979 54.0006 9.54937 54.4327 10.3037V8.24936H56.564V19.499H54.4327V17.3897C53.942 18.1661 53.3122 18.7703 52.5431 19.2024C51.7741 19.6345 50.9245 19.8506 49.9944 19.8506ZM50.5657 18.0159C51.3347 18.0159 52.0121 17.8401 52.5981 17.4886C53.1913 17.1297 53.6564 16.639 53.9933 16.0165C54.3302 15.3939 54.4986 14.6798 54.4986 13.8742C54.4986 13.0686 54.3302 12.3545 53.9933 11.7319C53.6564 11.1094 53.1913 10.6223 52.5981 10.2708C52.0121 9.91191 51.3347 9.73247 50.5657 9.73247C49.804 9.73247 49.1265 9.91191 48.5332 10.2708C47.94 10.6223 47.4713 11.1094 47.127 11.7319C46.7901 12.3545 46.6217 13.0686 46.6217 13.8742C46.6217 14.6725 46.7901 15.3866 47.127 16.0165C47.4713 16.639 47.94 17.1297 48.5332 17.4886C49.1265 17.8401 49.804 18.0159 50.5657 18.0159ZM61.0617 19.499V8.24936H63.193V9.89726C63.5666 9.24542 64.0426 8.75105 64.6212 8.41415C65.1998 8.06992 65.8553 7.89781 66.5877 7.89781C66.9393 7.89781 67.2945 7.94175 67.6533 8.02964C68.0195 8.11021 68.3345 8.22007 68.5981 8.35922L67.7193 10.1609C67.4922 10.0364 67.2286 9.93754 66.9283 9.8643C66.628 9.79106 66.346 9.75444 66.0823 9.75444C65.5916 9.75444 65.1229 9.88261 64.6761 10.139C64.2367 10.388 63.8778 10.7139 63.5995 11.1167C63.3285 11.5195 63.193 11.9516 63.193 12.4131V19.499H61.0617ZM71.2324 19.499V8.24936H73.3637V9.69951C73.8397 9.09894 74.378 8.64852 74.9786 8.34823C75.5792 8.04795 76.2457 7.89781 76.9781 7.89781C77.8862 7.89781 78.6845 8.10654 79.373 8.52401C80.0615 8.93415 80.5412 9.49444 80.8122 10.2049C81.2809 9.48712 81.8449 8.92317 82.504 8.51303C83.1632 8.10288 83.9359 7.89781 84.8221 7.89781C85.6277 7.89781 86.3418 8.0626 86.9643 8.39218C87.5869 8.72176 88.0776 9.19782 88.4365 9.82036C88.7953 10.4429 88.9748 11.1973 88.9748 12.0835V19.499H86.8435V12.6767C86.8435 11.7392 86.5981 10.9959 86.1074 10.4466C85.6167 9.89726 84.9649 9.62261 84.1519 9.62261C83.588 9.62261 83.0789 9.74712 82.6249 9.99613C82.1781 10.2378 81.8229 10.5564 81.5592 10.9519C81.3029 11.3401 81.1747 11.7502 81.1747 12.1823V19.499H79.0434V12.5339C79.0434 11.6477 78.8017 10.9409 78.3183 10.4136C77.835 9.88627 77.1905 9.62261 76.3848 9.62261C75.8209 9.62261 75.3082 9.74346 74.8468 9.98515C74.3927 10.2195 74.0301 10.5271 73.7592 10.908C73.4955 11.2888 73.3637 11.688 73.3637 12.1054V19.499H71.2324ZM99.5193 19.499L91.917 1.37213H94.4437L100.398 16.1373L106.353 1.37213H108.868L101.266 19.499H99.5193ZM115.762 19.8506C114.583 19.8506 113.525 19.5906 112.587 19.0706C111.65 18.5506 110.91 17.8438 110.368 16.9503C109.826 16.0494 109.555 15.035 109.555 13.9072C109.555 13.0722 109.709 12.2922 110.016 11.5671C110.324 10.8421 110.752 10.2049 111.302 9.65557C111.851 9.09894 112.488 8.66683 113.213 8.35922C113.938 8.05161 114.715 7.89781 115.542 7.89781C116.714 7.89781 117.74 8.1395 118.618 8.62288C119.505 9.10627 120.193 9.78008 120.684 10.6443C121.182 11.5085 121.431 12.5119 121.431 13.6545C121.431 13.7497 121.427 13.8266 121.42 13.8852C121.413 13.9438 121.398 14.0207 121.376 14.1159H111.708C111.708 14.8996 111.884 15.5917 112.236 16.1922C112.594 16.7928 113.085 17.2652 113.708 17.6094C114.338 17.9463 115.059 18.1148 115.872 18.1148C116.641 18.1148 117.329 17.9573 117.937 17.6424C118.545 17.3275 119.073 16.8587 119.519 16.2362L121.079 17.0491C120.545 17.9353 119.809 18.6238 118.871 19.1145C117.941 19.6052 116.905 19.8506 115.762 19.8506ZM111.818 12.5449H119.289C119.186 11.9663 118.959 11.4609 118.607 11.0288C118.263 10.5894 117.827 10.2488 117.3 10.0071C116.78 9.7581 116.205 9.6336 115.575 9.6336C114.916 9.6336 114.319 9.75444 113.785 9.99613C113.257 10.2305 112.821 10.5674 112.477 11.0068C112.14 11.439 111.921 11.9516 111.818 12.5449ZM127.896 19.8506C126.958 19.8506 126.127 19.6492 125.402 19.2463C124.684 18.8362 124.113 18.2539 123.688 17.4996L124.71 16.1813C125.098 16.8331 125.567 17.3384 126.116 17.6973C126.665 18.0562 127.255 18.2356 127.885 18.2356C128.295 18.2356 128.665 18.1551 128.994 17.9939C129.331 17.8328 129.598 17.6021 129.796 17.3018C129.994 16.9942 130.093 16.6317 130.093 16.2142C130.093 15.8114 129.99 15.4965 129.785 15.2694C129.587 15.035 129.291 14.83 128.895 14.6542C128.507 14.4784 128.02 14.277 127.434 14.05C126.965 13.8595 126.511 13.6435 126.072 13.4018C125.632 13.1601 125.27 12.8562 124.984 12.49C124.706 12.1164 124.567 11.644 124.567 11.0728C124.567 10.4575 124.732 9.91191 125.061 9.43585C125.398 8.95979 125.86 8.58626 126.445 8.31528C127.031 8.04429 127.698 7.90879 128.445 7.90879C129.053 7.90879 129.642 8.02964 130.214 8.27133C130.785 8.51302 131.327 8.86091 131.84 9.315L130.983 10.6114C130.221 9.80571 129.379 9.40289 128.456 9.40289C127.899 9.40289 127.449 9.54571 127.105 9.83134C126.76 10.1097 126.588 10.4722 126.588 10.919C126.588 11.2632 126.713 11.5525 126.962 11.7869C127.211 12.0139 127.529 12.2116 127.918 12.3801C128.306 12.5485 128.709 12.7133 129.126 12.8745C129.756 13.1088 130.305 13.3505 130.774 13.5995C131.25 13.8486 131.62 14.1708 131.883 14.5663C132.147 14.9545 132.279 15.4781 132.279 16.1373C132.279 16.9063 132.096 17.5691 131.73 18.1258C131.371 18.6824 130.862 19.1109 130.203 19.4111C129.543 19.7041 128.774 19.8506 127.896 19.8506ZM138.831 19.8506C137.908 19.8506 137.19 19.5466 136.678 18.9387C136.165 18.3235 135.908 17.463 135.908 16.357V9.8643H134.656V8.24936H135.908V4.04172H138.04V8.24936H140.742V9.8643H138.04V16.2252C138.04 16.7818 138.15 17.2103 138.369 17.5106C138.589 17.8108 138.904 17.961 139.314 17.961C139.724 17.961 140.09 17.8401 140.413 17.5984L140.951 19.3013C140.665 19.4697 140.332 19.6016 139.951 19.6968C139.578 19.7993 139.204 19.8506 138.831 19.8506Z" fill="white"/>
</svg>
